<?xml version="1.0" encoding="UTF-8"?><svg id="_레이어_2" xmlns="http://www.w3.org/2000/svg" viewBox="0 0 851.14 395.55"><defs><style>.cls-1{fill:#b3803a;}.cls-2{fill:#2f2e60;}</style></defs><g id="_레이어_1-2"><path class="cls-1" d="m256.9,225.27h21.99v4.48h-21.99v-4.48Zm11.39,19.3c-5.15,0-9.04-2.87-9.04-7s3.87-7.11,9.04-7.11,8.85,2.93,8.85,7.11-3.77,7-8.85,7m-5.56-25.08h11.06v4.54h-11.06v-4.54Zm.07,36.83v-10.47h5.88v5.69h19.14v4.79h-25.02Zm5.48-21.31c-2,0-3.27,1.14-3.27,2.56,0,1.31,1.32,2.45,3.27,2.45s3.26-1.14,3.26-2.45c0-1.42-1.38-2.56-3.26-2.56m18.73.06v12.04h-5.78v-28.47h5.78v11.63h5.48v4.81h-5.48Z"/><path class="cls-1" d="m311.48,220.57c5.69,0,10.02,4.04,10.02,9.21s-4.33,8.9-10.02,8.9-9.97-3.58-9.97-8.9,4.21-9.21,9.97-9.21m0,13.62c2.41,0,4.39-1.89,4.39-4.46s-1.84-4.36-4.39-4.36-4.33,2.03-4.33,4.39c0,2.59,1.76,4.44,4.33,4.44m7.98,22.89c-7.32,0-12.19-3.25-12.19-8.21s4.87-8.37,12.19-8.37,12.16,3.29,12.16,8.37-4.71,8.21-12.16,8.21m0-11.83c-3.92,0-6.26,1.37-6.26,3.62,0,2.13,2.34,3.5,6.26,3.5s6.24-1.43,6.24-3.5c0-2.24-2.38-3.62-6.24-3.62m11.89-9.1v4.18h-5.86v-21.7h5.86v4.64h4.8v4.8h-4.8v3.29h4.8v4.79h-4.8Z"/><path class="cls-1" d="m366.18,221.43h18.43v23.94h-18.43v-23.94Zm12.56,4.75h-6.78v14.45h6.78v-14.45Zm11.57-7.54h5.93v36.49h-5.93v-36.49Z"/><path class="cls-1" d="m413.43,257.09v-10.28h18.91v-1.47h-18.94v-4.55h9.56v-1.86h-14.17v-4.63h34.33v4.63h-14.31v1.86h9.34v10.15h-18.95v1.52h20.19v4.63h-25.96Zm15.75-38.01v.55c0,5.28,6.69,8.9,12.12,9.27l-2.44,4.64c-4.77-.6-10.78-3.54-12.86-7.62-2.15,4.17-7.8,6.85-12.96,7.56l-2.33-4.58c6.01-.69,12.12-3.96,12.12-9.27v-.55h6.36Z"/><polygon class="cls-1" points="460.63 239.55 453.87 239.55 453.87 234.88 460.63 234.88 460.63 228.07 465.7 228.07 465.7 234.88 472.42 234.88 472.42 239.55 465.7 239.55 465.7 246.33 460.63 246.33 460.63 239.55"/><path class="cls-1" d="m485.4,221.57h17.41v4.68h-11.54v14.86c4.63.08,10.69-.17,14.73-1.08l.48,4.87c-4.33,1.07-14.39,1.35-21.08,1.12v-24.44Zm23.49-2.93h5.86v36.49h-5.86v-36.49Z"/><path class="cls-1" d="m547.05,246.46c-3.28-1.55-7.39-5.83-8.57-9.14-.96,3.56-4.51,8.02-8.61,9.85l-3.51-4.35c6.06-3.27,8.91-8.12,8.99-16.12h-7.19v-4.79h20.17v4.79h-6.93c.07,8.01,3.29,12.47,8.9,15.44l-3.26,4.33Zm10.36-10.08v18.75h-5.77v-36.49h5.77v12.96h5.47v4.78h-5.47Z"/><path class="cls-1" d="m583.37,221.14c6.4,0,10.46,4.17,10.46,9.52s-4.06,9.45-10.46,9.45-10.34-4.06-10.34-9.48,4-9.5,10.34-9.5m0,14.08c2.73,0,4.57-1.9,4.57-4.58s-1.84-4.57-4.57-4.57-4.4,1.96-4.4,4.59,1.68,4.56,4.4,4.56m-4.38,20.64v-12.91h5.89v8.31h19.68v4.61h-25.57Zm18.88-37.23h5.87v27.25h-5.87v-27.25Z"/><path class="cls-1" d="m634.81,250.69v-4.73h7.36v-11.48h5.93v11.48h3.03v-11.48h5.83v11.48h12.19v4.73h-34.34Zm30.76-23.81c0,5.89-.62,11.09-1.54,15.19l-5.59-.77c.85-3.21,1.25-7.81,1.25-11.52v-3.36h-20.68v-4.77h26.56v5.23Z"/><path class="cls-1" d="m702.79,256.97v-8.49h-19.07v-4.72h4.02v-2.96h-8.54v-4.7h34.28v4.7h-8.55v2.96h3.72v13.21h-5.86Zm-6.42-22.04c-7.29,0-12.4-3.02-12.4-7.9s4.87-8.04,12.4-8.04,12.46,3.29,12.46,8.04-5.16,7.9-12.46,7.9m0-11.38c-4.18,0-6.52,1.54-6.52,3.48s2.33,3.4,6.52,3.4,6.49-1.5,6.49-3.4-2.39-3.48-6.49-3.48m-2.8,20.2h5.49v-2.96h-5.49v2.96Z"/><path class="cls-1" d="m739.46,241.19c-2.26-1.06-5.42-4.1-6.39-6.43-1.08,2.85-4.1,6.26-6.87,7.6l-3.28-4.24c4.49-2.61,7.14-7,7.14-12.23v-4.57h5.73v4.44c0,5.19,2.75,9.26,6.66,11.09l-3.01,4.35Zm-8.34,14.93v-12.78h5.87v8.02h19.82v4.76h-25.68Zm11.91-10.6v-13.54h-3.99v-4.7h3.99v-8.02h5.46v26.26h-5.46Zm7.56-26.88h5.54v27.64h-5.54v-27.64Z"/><path class="cls-1" d="m789.25,245.61c-4.2.98-14.06,1.27-19.86.98v-25.39h17.61v4.79h-11.73v4.94h10.36v4.75h-10.36v6.17c3.82.12,9.31.08,13.36-.9l.63,4.67Zm4.68,9.52v-19.85h-5.59v-4.93h5.59v-11.71h5.83v36.49h-5.83Z"/><polygon class="cls-2" points="260.53 318.31 260.53 273.09 269.91 273.09 269.91 290.33 287.5 290.33 287.5 273.09 296.87 273.09 296.87 318.31 287.5 318.31 287.5 298.12 269.91 298.12 269.91 318.31 260.53 318.31"/><path class="cls-2" d="m319.31,297.98c1.62-.2,2.78-.46,3.46-.77,1.28-.51,1.9-1.36,1.9-2.46,0-1.41-.48-2.35-1.44-2.83-.96-.54-2.38-.82-4.24-.82-2.1,0-3.58.54-4.45,1.56-.65.73-1.03,1.77-1.24,3.04h-8.4c.16-2.93.96-5.32,2.44-7.19,2.33-2.93,6.3-4.41,11.93-4.41,3.68,0,6.94.71,9.79,2.15,2.87,1.47,4.3,4.22,4.3,8.22v15.33c0,1.05.02,2.36.05,3.9.1,1.12.28,1.91.52,2.31.29.4.73.73,1.3,1v1.27h-9.5c-.25-.66-.44-1.27-.57-1.88-.07-.6-.16-1.26-.22-1.98-1.23,1.27-2.62,2.38-4.22,3.32-1.89,1.08-4.03,1.62-6.41,1.62-3.05,0-5.55-.88-7.55-2.62-2-1.7-2.99-4.15-2.99-7.31,0-4.15,1.61-7.12,4.82-8.94,1.72-.97,4.32-1.72,7.72-2.14l3.01-.37Zm5.35,4.08c-.58.34-1.15.63-1.72.88-.58.19-1.37.36-2.37.57l-1.96.37c-1.88.34-3.21.71-4.01,1.19-1.38.79-2.06,2.04-2.06,3.7,0,1.5.38,2.59,1.24,3.23.87.69,1.85,1.02,3.07,1.02,1.91,0,3.68-.57,5.29-1.67,1.61-1.11,2.43-3.1,2.53-6.06v-3.23Z"/><path class="cls-2" d="m368.75,286.8c2.2,1.8,3.27,4.81,3.27,8.99v22.5h-8.94v-20.31c0-1.73-.19-3.09-.7-4.03-.83-1.74-2.46-2.6-4.84-2.6-2.95,0-4.99,1.25-6.06,3.79-.58,1.3-.9,3.01-.9,5.05v18.1h-8.72v-33.37h8.48v4.89c1.11-1.7,2.19-2.95,3.19-3.7,1.78-1.36,4.06-2.01,6.79-2.01,3.44,0,6.26.88,8.44,2.69"/><path class="cls-2" d="m382.31,324.71l1.11.08c.84.04,1.66,0,2.46-.11.76-.11,1.41-.34,1.92-.71.55-.34,1.03-1.05,1.42-2.15.47-1.09.66-1.78.61-2.03l-12.3-34.92h9.74l7.26,24.66,6.91-24.66h9.31l-11.46,32.9c-2.22,6.35-3.98,10.28-5.25,11.8-1.32,1.51-3.87,2.28-7.73,2.28-.78,0-1.42-.02-1.9-.02s-1.15-.04-2.1-.12v-7Z"/><path class="cls-2" d="m429.98,297.98c1.64-.2,2.79-.46,3.51-.77,1.24-.51,1.89-1.36,1.89-2.46,0-1.41-.5-2.35-1.47-2.83-.96-.54-2.39-.82-4.24-.82-2.12,0-3.58.54-4.46,1.56-.61.73-.99,1.77-1.24,3.04h-8.4c.17-2.93.97-5.32,2.45-7.19,2.3-2.93,6.31-4.41,11.92-4.41,3.69,0,6.97.71,9.8,2.15,2.9,1.47,4.3,4.22,4.3,8.22v15.33c0,1.05.04,2.36.05,3.9.08,1.12.26,1.91.52,2.31.28.4.74.73,1.31,1v1.27h-9.52c-.25-.66-.43-1.27-.52-1.88-.14-.6-.22-1.26-.25-1.98-1.23,1.27-2.66,2.38-4.2,3.32-1.92,1.08-4.05,1.62-6.45,1.62-3.04,0-5.53-.88-7.53-2.62-1.97-1.7-2.98-4.15-2.98-7.31,0-4.15,1.62-7.12,4.77-8.94,1.77-.97,4.35-1.72,7.76-2.14l2.98-.37Zm5.35,4.08c-.57.34-1.13.63-1.71.88-.57.19-1.35.36-2.36.57l-1.95.37c-1.89.34-3.23.71-4.02,1.19-1.43.79-2.09,2.04-2.09,3.7,0,1.5.4,2.59,1.29,3.23.81.69,1.85,1.02,3.02,1.02,1.94,0,3.7-.57,5.29-1.67,1.64-1.11,2.48-3.1,2.52-6.06v-3.23Z"/><path class="cls-2" d="m479.44,286.8c2.22,1.8,3.28,4.81,3.28,8.99v22.5h-8.93v-20.31c0-1.73-.24-3.09-.7-4.03-.85-1.74-2.5-2.6-4.88-2.6-2.96,0-4.98,1.25-6.06,3.79-.57,1.3-.87,3.01-.87,5.05v18.1h-8.77v-33.37h8.52v4.89c1.11-1.7,2.15-2.95,3.15-3.7,1.81-1.36,4.06-2.01,6.83-2.01,3.44,0,6.22.88,8.42,2.69"/><path class="cls-2" d="m508.21,284.87c2.13.85,3.85,2.46,5.16,4.8v-4.8h8.54v31.74c0,4.28-.76,7.56-2.2,9.72-2.5,3.79-7.3,5.66-14.32,5.66-4.29,0-7.82-.85-10.5-2.51-2.7-1.7-4.16-4.17-4.47-7.49h9.49c.26.98.66,1.73,1.2,2.19.97.79,2.53,1.19,4.77,1.19,3.14,0,5.24-1.06,6.32-3.15.71-1.37,1.05-3.62,1.05-6.8v-2.16c-.84,1.42-1.75,2.51-2.72,3.25-1.75,1.31-4.03,1.96-6.78,1.96-4.29,0-7.73-1.5-10.26-4.5-2.6-3.04-3.86-7.11-3.86-12.25s1.2-9.16,3.68-12.54c2.5-3.39,6.01-5.06,10.51-5.06,1.7,0,3.14.23,4.39.77m2.96,23.95c1.39-1.55,2.1-4.02,2.1-7.39,0-3.17-.64-5.58-1.97-7.24-1.35-1.65-3.1-2.46-5.39-2.46-3.05,0-5.15,1.42-6.29,4.32-.63,1.54-.93,3.44-.93,5.66,0,1.96.3,3.67.96,5.21,1.19,2.81,3.29,4.23,6.36,4.23,2.04,0,3.76-.77,5.15-2.32"/><polygon class="cls-2" points="583.26 281.12 559.35 281.12 559.35 290.73 581.3 290.73 581.3 298.55 559.35 298.55 559.35 310.18 584.33 310.18 584.33 318.31 550.1 318.31 550.1 273.09 583.26 273.09 583.26 281.12"/><path class="cls-2" d="m609.57,285.41c1.56.89,2.85,2.13,3.81,3.73v-15.97h8.87v45.14h-8.48v-4.64c-1.29,2.01-2.68,3.43-4.27,4.33-1.59.91-3.61,1.37-5.96,1.37-3.91,0-7.19-1.6-9.83-4.79-2.7-3.13-4.03-7.19-4.03-12.13,0-5.7,1.32-10.18,3.94-13.45,2.63-3.27,6.12-4.92,10.54-4.92,2.06,0,3.82.44,5.4,1.33m2.14,23.83c1.3-1.85,1.92-4.24,1.92-7.17,0-4.06-1.02-7.01-3.1-8.77-1.25-1.08-2.73-1.59-4.4-1.59-2.57,0-4.44.96-5.6,2.86-1.21,1.97-1.79,4.35-1.79,7.24,0,3.07.6,5.57,1.79,7.39,1.21,1.84,3.08,2.78,5.51,2.78s4.39-.94,5.67-2.75"/><path class="cls-2" d="m639.74,284.87v20.16c0,1.9.23,3.33.7,4.29.78,1.71,2.31,2.56,4.63,2.56,3.01,0,5.01-1.23,6.12-3.64.57-1.29.85-3.04.85-5.17v-18.2h8.87v33.44h-8.54v-4.73c-.04.12-.26.4-.6.91-.3.5-.68.96-1.13,1.36-1.41,1.24-2.69,2.06-3.99,2.51-1.24.46-2.75.69-4.45.69-4.97,0-8.25-1.79-9.99-5.35-.94-1.96-1.42-4.86-1.42-8.67v-20.16h8.95Z"/><path class="cls-2" d="m690.23,296.87c-.18-1.23-.63-2.36-1.29-3.39-.96-1.33-2.53-2.01-4.58-2.01-2.96,0-4.97,1.47-6.06,4.38-.57,1.56-.85,3.63-.85,6.16s.29,4.47.85,5.96c1.06,2.75,3.02,4.15,5.93,4.15,2.02,0,3.51-.54,4.34-1.65.89-1.12,1.41-2.54,1.56-4.3h8.93c-.19,2.66-1.15,5.18-2.87,7.54-2.75,3.84-6.79,5.75-12.19,5.75s-9.37-1.62-11.89-4.79c-2.53-3.17-3.8-7.33-3.8-12.43,0-5.7,1.41-10.2,4.21-13.36,2.81-3.19,6.69-4.77,11.6-4.77,4.2,0,7.62.9,10.3,2.81,2.66,1.86,4.24,5.17,4.73,9.96h-8.92Z"/><path class="cls-2" d="m719.24,297.98c1.57-.2,2.75-.46,3.46-.77,1.26-.51,1.88-1.36,1.88-2.46,0-1.41-.48-2.35-1.42-2.83-1.01-.54-2.43-.82-4.27-.82-2.09,0-3.58.54-4.44,1.56-.61.73-1.05,1.77-1.27,3.04h-8.42c.19-2.93.97-5.32,2.46-7.19,2.32-2.93,6.31-4.41,11.95-4.41,3.67,0,6.94.71,9.79,2.15,2.87,1.47,4.26,4.22,4.26,8.22v15.33c0,1.05.06,2.36.08,3.9.1,1.12.25,1.91.53,2.31.3.4.72.73,1.3,1v1.27h-9.5c-.25-.66-.46-1.27-.58-1.88-.08-.6-.18-1.26-.23-1.98-1.21,1.27-2.63,2.38-4.17,3.32-1.95,1.08-4.09,1.62-6.47,1.62-3.03,0-5.54-.88-7.54-2.62-1.97-1.7-2.98-4.15-2.98-7.31,0-4.15,1.64-7.12,4.82-8.94,1.77-.97,4.32-1.72,7.7-2.14l3.05-.37Zm5.3,4.08c-.57.34-1.13.63-1.7.88-.57.19-1.35.36-2.33.57l-2,.37c-1.85.34-3.21.71-4,1.19-1.39.79-2.08,2.04-2.08,3.7,0,1.5.4,2.59,1.27,3.23.84.69,1.83,1.02,3.04,1.02,1.91,0,3.68-.57,5.27-1.67,1.62-1.11,2.48-3.1,2.53-6.06v-3.23Z"/><path class="cls-2" d="m738.25,291.42v-6.21h4.7v-9.35h8.64v9.35h5.4v6.21h-5.4v17.67c0,1.38.18,2.22.52,2.57.34.31,1.42.48,3.17.48.29,0,.55,0,.85-.02.32,0,.6,0,.85-.04v6.54l-4.11.14c-4.14.15-6.97-.57-8.44-2.15-1.03-1-1.49-2.51-1.49-4.62v-20.58h-4.7Z"/><path class="cls-2" d="m772.44,280.9h-8.87v-8.08h8.87v8.08Zm-8.87,3.98h8.87v33.44h-8.87v-33.44Z"/><path class="cls-2" d="m809.58,314.21c-2.78,3.51-7.07,5.24-12.85,5.24s-10.02-1.73-12.87-5.24c-2.81-3.46-4.22-7.67-4.22-12.55s1.41-8.99,4.22-12.55c2.85-3.52,7.11-5.29,12.87-5.29s10.08,1.77,12.85,5.29c2.81,3.56,4.23,7.71,4.23,12.55s-1.42,9.09-4.23,12.55m-7-4.82c1.39-1.81,2.07-4.39,2.07-7.73s-.67-5.93-2.07-7.78c-1.36-1.79-3.31-2.69-5.89-2.69s-4.53.9-5.88,2.69c-1.38,1.85-2.08,4.41-2.08,7.78s.7,5.92,2.08,7.73c1.35,1.82,3.32,2.73,5.88,2.73s4.53-.91,5.89-2.73"/><path class="cls-2" d="m847.85,286.8c2.2,1.8,3.28,4.81,3.28,8.99v22.5h-8.95v-20.31c0-1.73-.24-3.09-.7-4.03-.85-1.74-2.48-2.6-4.87-2.6-2.96,0-4.98,1.25-6.08,3.79-.54,1.3-.87,3.01-.87,5.05v18.1h-8.73v-33.37h8.45v4.89c1.14-1.7,2.22-2.95,3.22-3.7,1.78-1.36,4.06-2.01,6.78-2.01,3.45,0,6.26.88,8.45,2.69"/><path class="cls-2" d="m268.86,344.45h-8.86v-8.08h8.86v8.08Zm-8.86,3.99h8.86v33.42h-8.86v-33.42Z"/><path class="cls-2" d="m305.09,350.34c2.21,1.81,3.29,4.8,3.29,9.01v22.5h-8.96v-20.33c0-1.77-.24-3.1-.69-4.04-.85-1.73-2.5-2.59-4.89-2.59-2.92,0-4.93,1.27-6.06,3.79-.54,1.33-.84,3.03-.84,5.09v18.08h-8.73v-33.35h8.45v4.86c1.12-1.71,2.16-2.92,3.17-3.7,1.79-1.36,4.08-2.01,6.82-2.01,3.44,0,6.26.88,8.43,2.7"/><path class="cls-2" d="m346.94,336.65h10.7l15.98,45.2h-10.24l-2.98-9.27h-16.66l-3.04,9.27h-9.91l16.16-45.2Zm-.66,28.11h11.62l-5.71-17.78-5.9,17.78Z"/><path class="cls-2" d="m398.05,347.64c.11.02.36.02.77.05v8.96c-.58-.08-1.09-.11-1.49-.11-.41-.05-.79-.05-1.05-.05-3.52,0-5.89,1.17-7.09,3.43-.67,1.29-1.01,3.27-1.01,5.95v16h-8.83v-33.42h8.36v5.82c1.33-2.25,2.54-3.75,3.54-4.57,1.61-1.41,3.76-2.06,6.38-2.06h.42"/><path class="cls-2" d="m401.31,354.95v-6.19h4.68v-9.34h8.62v9.34h5.41v6.19h-5.41v17.69c0,1.37.19,2.21.53,2.56.34.34,1.39.48,3.2.48h.83c.29,0,.61-.04.85-.04v6.52l-4.11.14c-4.16.17-6.96-.54-8.48-2.13-.99-1-1.44-2.54-1.44-4.64v-20.58h-4.68Z"/><polygon class="cls-2" points="424.64 369.22 424.64 361.2 437.2 361.2 437.2 348.62 445.29 348.62 445.29 361.2 457.86 361.2 457.86 369.22 445.29 369.22 445.29 381.87 437.2 381.87 437.2 369.22 424.64 369.22"/><path class="cls-2" d="m491.15,337.62c3.17,1.06,5.75,2.98,7.71,5.75,1.6,2.25,2.66,4.69,3.25,7.3.57,2.6.85,5.1.85,7.49,0,6-1.2,11.08-3.63,15.27-3.25,5.63-8.35,8.42-15.17,8.42h-19.47v-45.2h19.47c2.81.07,5.16.38,7,.97m-17.31,6.89v29.49h8.73c4.46,0,7.55-2.2,9.37-6.58.91-2.44,1.42-5.33,1.42-8.65,0-4.58-.71-8.11-2.18-10.58-1.44-2.5-4.32-3.69-8.61-3.69h-8.73Z"/><path class="cls-2" d="m531.93,349.1c2.33,1.07,4.23,2.68,5.81,4.95,1.33,1.96,2.24,4.26,2.63,6.91.24,1.54.34,3.71.29,6.63h-24.34c.15,3.37,1.28,5.69,3.48,7.06,1.32.85,2.97,1.25,4.82,1.25,2,0,3.63-.52,4.86-1.54.67-.54,1.29-1.31,1.8-2.3h8.9c-.2,1.98-1.29,4-3.21,6.05-3.01,3.27-7.2,4.87-12.58,4.87-4.46,0-8.38-1.33-11.76-4.1-3.43-2.75-5.13-7.19-5.13-13.41,0-5.78,1.55-10.23,4.61-13.3,3.05-3.1,7.07-4.63,11.94-4.63,2.96,0,5.56.53,7.89,1.55m-13.08,7.54c-1.25,1.27-2.02,3.02-2.33,5.18h15.08c-.18-2.33-.95-4.06-2.35-5.29-1.38-1.19-3.11-1.79-5.21-1.79-2.2,0-3.94.63-5.19,1.9"/><path class="cls-2" d="m552.68,371.19c.16,1.55.59,2.66,1.21,3.29,1.08,1.19,3.09,1.76,6.04,1.76,1.69,0,3.1-.24,4.11-.77,1.01-.48,1.52-1.27,1.52-2.3,0-.96-.41-1.73-1.23-2.21-.82-.53-3.87-1.41-9.13-2.66-3.81-.96-6.52-2.13-8.04-3.53-1.54-1.37-2.34-3.37-2.34-5.99,0-3.1,1.23-5.77,3.63-7.98,2.46-2.22,5.88-3.33,10.26-3.33s7.59.82,10.22,2.49c2.67,1.68,4.16,4.56,4.53,8.66h-8.73c-.11-1.14-.43-2-.93-2.68-.99-1.19-2.62-1.77-4.95-1.77-1.88,0-3.28.29-4.06.87-.81.61-1.24,1.3-1.24,2.08,0,1.05.47,1.76,1.33,2.21.87.46,3.87,1.27,9.11,2.42,3.49.79,6.08,2.06,7.83,3.73,1.72,1.65,2.57,3.75,2.57,6.29,0,3.29-1.24,5.99-3.7,8.1-2.45,2.07-6.26,3.13-11.46,3.13s-9.15-1.12-11.65-3.36c-2.5-2.2-3.79-5.01-3.79-8.44h8.89Z"/><path class="cls-2" d="m590.66,344.45h-8.9v-8.08h8.9v8.08Zm-8.9,3.99h8.9v33.42h-8.9v-33.42Z"/><path class="cls-2" d="m616.45,348.4c2.14.85,3.85,2.49,5.18,4.84v-4.8h8.51v31.69c0,4.3-.76,7.57-2.2,9.75-2.48,3.76-7.29,5.66-14.33,5.66-4.27,0-7.73-.88-10.47-2.53-2.69-1.67-4.21-4.18-4.48-7.52h9.52c.2,1.02.63,1.73,1.2,2.22.94.79,2.54,1.17,4.74,1.17,3.13,0,5.24-1.03,6.32-3.16.69-1.33,1.05-3.61,1.05-6.79v-2.15c-.84,1.42-1.74,2.49-2.71,3.2-1.77,1.35-4,2.02-6.77,2.02-4.32,0-7.73-1.5-10.28-4.51-2.6-3.05-3.86-7.12-3.86-12.24s1.24-9.17,3.68-12.56c2.49-3.39,6.01-5.06,10.55-5.06,1.66,0,3.1.25,4.35.76m2.99,23.94c1.43-1.51,2.1-3.97,2.1-7.35,0-3.16-.67-5.58-2.01-7.23-1.32-1.67-3.14-2.51-5.35-2.51-3.09,0-5.18,1.47-6.34,4.33-.61,1.54-.89,3.44-.89,5.69,0,1.91.31,3.67.96,5.17,1.17,2.83,3.31,4.22,6.34,4.22,2.05,0,3.79-.75,5.18-2.32"/><path class="cls-2" d="m666.05,350.34c2.19,1.81,3.27,4.8,3.27,9.01v22.5h-8.92v-20.33c0-1.77-.23-3.1-.71-4.04-.87-1.73-2.5-2.59-4.87-2.59-2.92,0-4.95,1.27-6.06,3.79-.57,1.33-.87,3.03-.87,5.09v18.08h-8.74v-33.35h8.46v4.86c1.13-1.71,2.2-2.92,3.19-3.7,1.8-1.36,4.06-2.01,6.82-2.01,3.43,0,6.25.88,8.43,2.7"/><polygon class="cls-2" points="697.25 336.65 706.72 336.65 706.72 373.72 729.27 373.72 729.27 381.84 697.25 381.84 697.25 336.65"/><path class="cls-2" d="m748.98,361.51c1.61-.17,2.8-.46,3.49-.77,1.26-.52,1.89-1.33,1.89-2.51,0-1.33-.47-2.3-1.47-2.8-.95-.48-2.34-.77-4.22-.77-2.12,0-3.6.5-4.44,1.53-.66.76-1.03,1.77-1.26,3.05h-8.45c.22-2.91,1.03-5.31,2.48-7.19,2.32-2.95,6.29-4.41,11.96-4.41,3.64,0,6.93.72,9.8,2.15,2.85,1.49,4.27,4.22,4.27,8.21v15.37c0,1.06.02,2.33.06,3.84.06,1.18.24,1.95.49,2.35.32.42.76.76,1.32,1.02v1.27h-9.5c-.26-.65-.46-1.31-.57-1.88-.1-.62-.18-1.3-.23-2.06-1.22,1.35-2.62,2.43-4.21,3.37-1.88,1.08-4.02,1.62-6.45,1.62-3.01,0-5.53-.89-7.53-2.6-1.98-1.73-2.97-4.17-2.97-7.33,0-4.12,1.61-7.09,4.77-8.92,1.76-1.01,4.34-1.74,7.72-2.14l3.03-.4Zm5.34,4.1c-.54.34-1.14.63-1.72.82-.57.25-1.32.42-2.31.6l-2,.4c-1.86.31-3.22.71-4,1.17-1.39.82-2.09,2.07-2.09,3.73,0,1.5.42,2.59,1.28,3.23.83.66,1.86.97,3.05.97,1.9,0,3.67-.52,5.3-1.62,1.57-1.14,2.43-3.13,2.49-6.06v-3.23Z"/><path class="cls-2" d="m800.04,352.43c2.48,3.19,3.74,7.26,3.74,12.25s-1.21,9.53-3.69,12.95c-2.48,3.41-5.93,5.12-10.32,5.12-2.8,0-5.01-.58-6.68-1.68-1.03-.65-2.1-1.79-3.27-3.4v4.17h-8.66v-45.13h8.75v16.09c1.12-1.59,2.33-2.77,3.72-3.57,1.56-1.03,3.57-1.55,6.01-1.55,4.42,0,7.87,1.6,10.4,4.75m-7.31,20.37c1.25-1.83,1.86-4.21,1.86-7.17,0-2.38-.28-4.35-.91-5.89-1.17-2.93-3.33-4.44-6.48-4.44s-5.39,1.46-6.59,4.33c-.63,1.54-.91,3.55-.91,6,0,2.84.62,5.18,1.91,7.08,1.3,1.9,3.21,2.81,5.83,2.81,2.26,0,4.01-.91,5.29-2.73"/><path class="cls-1" d="m156.54,131.44c1.57.97,2.04,2.49,2.04,4.17v23.36c5.41,1.59,11.18,2.44,17.17,2.44s11.71-.85,17.17-2.44v-23.36c0-1.68.46-3.2,2.04-4.17,10.24-6.02,16.75-17.59,16.75-30.37,0-19.79-16.15-35.91-35.96-35.91s-35.95,16.12-35.95,35.91c0,12.78,6.46,24.35,16.74,30.37m19.21-57.27c14.85,0,26.93,12.07,26.93,26.9,0,9.53-4.74,18.17-12.3,22.62-2.4,1.42-6.47,4.89-6.47,11.93v9.34c-2.66.48-5.39.77-8.16.77s-5.52-.29-8.15-.77v-9.34c0-7.03-4.1-10.51-6.56-11.93-7.55-4.45-12.24-13.08-12.24-22.62,0-14.83,12.12-26.9,26.96-26.9"/><path class="cls-1" d="m205.12,139.38c-2.01,1.6-2.36,4.56-.77,6.58.96,1.15,2.3,1.76,3.67,1.76,1.02,0,2.07-.31,2.96-1.02,2.02-1.65,2.36-4.57.77-6.63-1.66-2-4.62-2.33-6.63-.69"/><path class="cls-1" d="m186.08,56.6c.3.08.71.14,1.01.14,2.18,0,4.1-1.5,4.62-3.7.57-2.53-1.03-5.03-3.56-5.6-2.55-.57-5.03,1.03-5.64,3.58-.59,2.48,1.03,5.01,3.57,5.58"/><path class="cls-1" d="m222.35,84.61c.61,0,1.33-.17,2.03-.46,2.32-1.19,3.31-4,2.12-6.31-1.14-2.33-3.96-3.31-6.22-2.16-2.37,1.14-3.28,3.94-2.18,6.25.79,1.68,2.48,2.68,4.24,2.68"/><path class="cls-1" d="m218.18,122.94c-1.14,2.36-.17,5.18,2.19,6.31.65.31,1.36.46,2.03.46,1.72,0,3.39-1,4.24-2.67,1.14-2.31.13-5.12-2.19-6.24-2.36-1.12-5.17-.13-6.28,2.14"/><path class="cls-1" d="m207.89,66.63c1.37,0,2.78-.59,3.67-1.78,1.64-2.03,1.29-5-.77-6.55-2-1.65-4.95-1.29-6.54.74-1.66,2.01-1.32,4.97.73,6.55.85.72,1.88,1.03,2.91,1.03"/><path class="cls-1" d="m164.06,56.79c.3,0,.71-.05,1.07-.13,2.48-.58,4.08-3.1,3.52-5.6-.63-2.54-3.15-4.12-5.63-3.58-2.55.63-4.11,3.13-3.53,5.66.49,2.19,2.39,3.66,4.57,3.66"/><path class="cls-1" d="m123.99,107.36c2.56-.05,4.63-2.1,4.63-4.73s-2.1-4.69-4.68-4.67c-2.6,0-4.69,2.13-4.69,4.73.05,2.56,2.09,4.67,4.74,4.67"/><path class="cls-1" d="m227.5,97.65c-2.56,0-4.69,2.1-4.69,4.67v.23c0,2.63,2.13,4.67,4.69,4.67s4.69-2.03,4.69-4.67v-.25c0-2.6-2.1-4.64-4.69-4.64"/><path class="cls-1" d="m127.05,120.9c-2.32,1.14-3.29,3.92-2.18,6.26.83,1.67,2.5,2.63,4.21,2.63.73,0,1.41-.14,2.07-.48,2.36-1.08,3.29-3.93,2.15-6.25-1.11-2.31-3.92-3.31-6.25-2.16"/><path class="cls-1" d="m139.82,140.17c-1.61,2.03-1.24,4.99.78,6.58.85.71,1.86,1.02,2.9,1.02,1.39,0,2.78-.6,3.67-1.77,1.64-2.02,1.31-4.98-.76-6.56-2-1.65-4.95-1.25-6.59.73"/><path class="cls-1" d="m143.36,66.84c1.06,0,2.07-.35,2.92-1.02,2-1.6,2.33-4.58.74-6.6-1.65-2.03-4.58-2.33-6.63-.73-2,1.64-2.37,4.59-.67,6.63.88,1.17,2.24,1.73,3.63,1.73"/><path class="cls-1" d="m126.98,84.44c.64.25,1.35.44,2.01.44,1.79,0,3.4-.98,4.29-2.67,1.06-2.37.1-5.15-2.22-6.29-2.32-1.11-5.12-.08-6.26,2.22v.02c-1.13,2.31-.15,5.12,2.19,6.26"/><path class="cls-2" d="m86.62,49.34c.18-.63-.28-1.08-.77-1.25-.61-.15-1.08.34-1.27.79l-.15,1.57,2.05.31.14-1.43Z"/><path class="cls-2" d="m62.33,34.3h-.28c-.49,0-.97.51-.97.94,0,.48.48.82.97.82h.13c-1.11,5.29-1.72,11.89-2.02,19.58-.48,0-.96.44-.96.94,0,.45.31.94.96.94-.65.13-.96.48-.96.93,0,.63.31.95.78.95-.14,5.95-.14,12.23,0,18.64h9.88c.14-6.41.14-12.69,0-18.64.47,0,.77-.33.77-.95,0-.44-.3-.79-.91-.93.61,0,.91-.49.91-.94,0-.49-.46-.94-.91-.94-.33-7.68-.95-14.28-2.04-19.58h.18c.43,0,.91-.34.91-.82,0-.43-.48-.94-.91-.94h-.35c7.67-3.74,6.46-15.79,1.89-23.14-2.2-3.93-3.29-6.75-4.56-11.16-3.28,7.06-16.12,26.16-2.51,34.3m-4.21-16.27c1.56-5.49,5.01-10.98,6.41-13.79.96,3.61,1.9,5.98,3.76,9.25,1.43,2.36,2.53,5.17,2.83,8.15-.63-.48-1.25-.48-1.88.78-.95,2.36-1.56-3.45-4.87-3.45-.76.17-4.53,4.87-6.25-.94"/><path class="cls-2" d="m79.88,60.8c.3.14.78-.17.78-.31,0,.14.32.46.64.6.45,0,.93-.14.93-.46,0,.31.18.63.63.63.48.14.77,0,.77-.31,0,.31.35.46.81.63.33,0,.81-.17.81-.48,0,.31.3.65.76.79.3,0,.81-.14.81-.48,0,.34.28.48.63.65.44,0,.93-.17.93-.48l-2.06-10-2.16-.35-5.01,8.96c0,.31.31.63.77.63m5.03-6.91l1.08,5.49h-.14l-2.22-.48h-.61l-.16-.16h-.78l2.84-4.86Z"/><path class="cls-2" d="m15.5,50.93c.48,0,.78-.31.78-.65,0,.34.32.49.81.49s.63-.49.63-.64c0,.14.46.48.94.32.31,0,.64-.32.64-.61,0,.29.43.43.76.43.48-.14.81-.43.81-.77,0,.34.3.63.76.47.48,0,.79-.33.79-.64,0,.31.31.5.79.5.47-.19.77-.5.64-.79l-5.03-8.95-2.05.47-2.02,10.04c0,.16.48.48.76.31m2.67-7.98l2.68,4.69-2.2.31-.94.15-.63.17,1.08-5.31Z"/><path class="cls-2" d="m18.65,39.51l-.17-1.6c-.14-.44-.59-.91-1.26-.76-.47,0-.94.63-.94,1.08l.32,1.59,2.05-.31Z"/><path class="cls-2" d="m221.35,363.18c-7.32,0-13.29-5.99-13.29-13.32.06-30.07.12-89.2-.24-110.87-.52-30.71-17.86-52.09-46.9-57.52-18.96-3.56-37.26-.52-54.27,9.13-7.11,4.06-14.45,7.85-22.9,12.34v-101.26h4.21v-6.56h-4.77l5.17-32.6c0,.31-.48.46-.93.46-.33-.15-.63-.29-.63-.6,0,.31-.46.46-.81.46-.46-.14-.76-.46-.76-.77,0,.31-.47.46-.81.46-.46-.15-.77-.31-.77-.63,0,.31-.32.48-.81.31-.48,0-.63-.31-.63-.63,0,.31-.48.48-.93.48-.31-.17-.64-.48-.64-.65,0,.17-.45.48-.78.31-.46,0-.77-.31-.77-.63l-5.33,34.01h-4.23c.13-5.18.31-10.18.31-15.21h-9.88c0,5.03.16,10.03.33,15.21h-7.85V6.91h-19.71v88.19h-1.73l-7.19-45.12c.13.3-.17.64-.64.79-.48,0-.79-.16-.79-.49,0,.34-.31.65-.79.65-.46.16-.76-.16-.76-.47,0,.31-.33.63-.81.76-.32,0-.76-.13-.76-.45,0,.31-.32.63-.64.63-.48.17-.94-.18-.94-.31,0,.13-.17.61-.63.61-.48,0-.81-.13-.81-.48,0,.35-.28.62-.78.62-.28.18-.76-.14-.76-.28l6.87,43.54h-6.48v6.56h4.67v248.2c0,7.33-5.96,13.31-13.29,13.31-3.58,0-6.5,2.91-6.5,6.48v6.55c0,3.67,2.96,6.63,6.64,6.63h90.24c3.71,0,6.67-2.96,6.67-6.63v-6.55c0-3.57-2.91-6.48-6.49-6.48-7.37,0-13.31-5.98-13.31-13.31v-120.55c1.29-2.15,2.83-4.05,4.45-5.48,11.71-10.21,25.92-10.41,39.57-4.35,12.66,5.64,16.78,17.12,16.81,30.23.02,21.7,0,72.99-.02,100.33,0,7.26-5.88,13.14-13.13,13.14h-.84c-3.63,0-6.63,2.97-6.63,6.62v6.41c0,3.67,2.99,6.63,6.63,6.63h90.3c3.68,0,6.63-2.96,6.63-6.63v-6.91c0-3.38-2.72-6.12-6.14-6.12M42.62,12.54c1.53,0,2.81,1.39,2.81,2.98s-1.29,2.82-2.81,2.82-2.84-1.26-2.84-2.82,1.25-2.98,2.84-2.98"/></g></svg>